<svg width="407" height="407" viewBox="0 0 407 407" fill="none" xmlns="http://www.w3.org/2000/svg">
<path d="M407 203.5C407 315.89 315.89 407 203.5 407C91.1097 407 0 315.89 0 203.5C0 91.1097 91.1097 0 203.5 0C315.89 0 407 91.1097 407 203.5ZM179.961 311.252L330.945 160.268C336.072 155.141 336.072 146.828 330.945 141.701L312.378 123.134C307.251 118.006 298.938 118.006 293.81 123.134L170.677 246.266L113.189 188.778C108.063 183.651 99.7495 183.651 94.6218 188.778L76.0548 207.345C70.928 212.472 70.928 220.785 76.0548 225.912L161.394 311.251C166.521 316.378 174.834 316.378 179.961 311.252Z" fill="#78A1BB"/>
</svg>
